<?xml version="1.0" encoding="utf-8"?>
<svg height="800" width="1200" version="1.1" id="Layer_1" viewBox="-26.25 -50 227.5 300" xmlns="http://www.w3.org/2000/svg">
  <style id="style114">.st0{fill:#7289da}</style>
  <path id="path116" d="M 63.97 75.85 C 56.56 75.85 50.71 83.35 50.71 92.5 C 50.71 101.65 56.69 109.15 63.97 109.15 C 71.38 109.15 77.23 101.65 77.23 92.5 C 77.36 83.35 71.38 75.85 63.97 75.85 Z M 111.42 75.85 C 104.01 75.85 98.16 83.35 98.16 92.5 C 98.16 101.65 104.14 109.15 111.42 109.15 C 118.83 109.15 124.68 101.65 124.68 92.5 C 124.68 83.35 118.83 75.85 111.42 75.85 Z" class="st0"/>
  <path id="path118" d="M 174.6 -50 L 0.4 -50 C -14.29 -50 -26.25 -36.2 -26.25 -19.1 L -26.25 183.7 C -26.25 200.8 -14.29 214.6 0.4 214.6 L 147.82 214.6 L 140.93 186.85 L 157.57 204.7 L 173.3 221.5 L 201.25 250 L 201.25 -19.1 C 201.25 -36.2 189.29 -50 174.6 -50 Z M 124.42 145.9 C 124.42 145.9 119.74 139.45 115.84 133.75 C 132.87 128.2 139.37 115.9 139.37 115.9 C 134.04 119.95 128.97 122.8 124.42 124.75 C 117.92 127.9 111.68 130 105.57 131.2 C 93.09 133.9 81.65 133.15 71.9 131.05 C 64.49 129.4 58.12 127 52.79 124.6 C 49.8 123.25 46.55 121.6 43.3 119.5 C 42.91 119.2 42.52 119.05 42.13 118.75 C 41.87 118.6 41.74 118.45 41.61 118.3 C 39.27 116.8 37.97 115.75 37.97 115.75 C 37.97 115.75 44.21 127.75 60.72 133.45 C 56.82 139.15 52.01 145.9 52.01 145.9 C 23.28 144.85 12.36 123.1 12.36 123.1 C 12.36 74.8 31.08 35.65 31.08 35.65 C 49.8 19.45 67.61 19.9 67.61 19.9 L 68.91 21.7 C 45.51 29.5 34.72 41.35 34.72 41.35 C 34.72 41.35 37.58 39.55 42.39 37 C 56.3 29.95 67.35 28 71.9 27.55 C 72.68 27.4 73.33 27.25 74.11 27.25 C 82.04 26.05 91.01 25.75 100.37 26.95 C 112.72 28.6 125.98 32.8 139.5 41.35 C 139.5 41.35 129.23 30.1 107.13 22.3 L 108.95 19.9 C 108.95 19.9 126.76 19.45 145.48 35.65 C 145.48 35.65 164.2 74.8 164.2 123.1 C 164.2 123.1 153.15 144.85 124.42 145.9 Z" class="st0"/>
</svg>